# Exported from ProBuilder
# http://www.procore3d.com/probuilder
# 5/13/2018 10:56:16 AM

mtllib ./ParedMadera.mtl
o ParedMadera

g New Game Object
v -9 2 4
v -8 2 4
v -8 2 -4
v -9 2 -4
v -8 0 4
v -9 0 -4
v -9 0 4
v -8 0 -4
v -9 2 -4
v -8 2 -4
v -9 0 -4
v -8 0 -4
v -8 2 -4
v -8 2 4
v -8 0 -4
v -8 0 4
v -9 2 4
v -9 2 -4
v -9 0 4
v -9 0 -4
v -8 2 4
v -9 2 4
v -8 0 4
v -9 0 4

vn 0 1 0
vn 0 1 0
vn 0 1 0
vn 0 1 0
vn 0 -1 0
vn 0 -1 0
vn 0 -1 0
vn 0 -1 0
vn 0 0 -1
vn 0 0 -1
vn 0 0 -1
vn 0 0 -1
vn 1 0 0
vn 1 0 0
vn 1 0 0
vn 1 0 0
vn -1 0 0
vn -1 0 0
vn -1 0 0
vn -1 0 0
vn 0 0 1
vn 0 0 1
vn 0 0 1
vn 0 0 1

vt 0 0
vt -1 0
vt -1 -8
vt 0 -8
vt 1 0
vt 0 -8
vt 0 0
vt 1 -8
vt 0 2
vt -1 2
vt 0 0
vt -1 0
vt 8 2
vt 0 2
vt 8 0
vt 0 0
vt 0 2
vt -8 2
vt 0 0
vt -8 0
vt 1 2
vt 0 2
vt 1 0
vt 0 0

g New Game Object
usemtl CementBrickWallAlbedo
f 1/1/1 2/2/2 3/3/3 4/4/4
f 8/8/8 5/5/5 7/7/7 6/6/6
f 9/9/9 10/10/10 12/12/12 11/11/11
f 13/13/13 14/14/14 16/16/16 15/15/15
f 17/17/17 18/18/18 20/20/20 19/19/19
f 21/21/21 22/22/22 24/24/24 23/23/23

